<svg xmlns="http://www.w3.org/2000/svg" viewBox="0 0 64 64">
  <path fill="currentColor" d="M52 14H12c-1.1 0-2 .9-2 2v36c0 1.1.9 2 2 2h40c1.1 0 2-.9 2-2V16c0-1.1-.9-2-2-2zm-40 8h40v28H12V22z"/>
  <g opacity=".4"><rect fill="currentColor" x="10" y="14" width="44" height="8"/></g>
  <rect fill="currentColor" x="20" y="10" width="4" height="10" rx="2"/>
  <rect fill="currentColor" x="40" y="10" width="4" height="10" rx="2"/>
  <rect fill="currentColor" x="16" y="26" width="12" height="3" rx="1"/>
  <rect fill="currentColor" x="16" y="32" width="32" height="3" rx="1"/>
  <rect fill="currentColor" x="16" y="38" width="24" height="3" rx="1"/>
</svg>
